Patient4_TMGait_0pt2_03_right_10_EMG.mot
version=1
nRows=36
nColumns=33
inDegrees=no
endheader
time	1LAddLong	2LGlutMax	3LGlutMed	4LIliopsoas	5LSemiMemb	6LBicFemLong	7LRecFem	8LVastMed	9LVastLat	10LGasMed	11LTibAnt	12lTibPost	13LPeroneusLong	14LSol	15LExtDigLong	16LFlexDigLong	17RAddLong	18RGlutMax	19RGlutMed	20RIliopsoas	21RSemiMemb	22RBicFemLong	23RRecFem	24RVastMed	25RVastLat	26RGasMed	27RTibAnt	28RTibPost	29RPeroneusLong	30RSol	31RExtDigLong	32RFlexDigLong
23.635	0.019073	-0.12497	-0.22156	-0.000916	0.019073	-0.009918	0.001984	-0.039215	-0.096283	0.022125	-0.22308	-0.007782	-0.17838	0.06073	-0.041809	-0.000305	0.005035	0.05127	0.30411	-0.10513	-0.048218	-0.047455	0.12909	-0.064087	-0.018311	-0.005646	0.21713	-0.00946	-0.17471	0.11917	-0.003052	-0.014038
23.636	-0.00824	-0.098419	-0.25971	-0.050354	0.021057	0.020752	0.005035	-0.039215	-0.059967	0.023956	-0.057526	-0.00473	-0.2919	0.077667	0.48355	0.001984	0.010376	0.033722	0.25925	0.11169	-0.026398	-0.013123	0.16449	-0.036926	-0.000763	-0.001526	0.33981	-0.00824	0.036621	-0.006256	-0.005341	-0.007782
23.637	-0.00061	-0.086365	-0.20783	-0.037079	0.015869	0.012665	0.063934	-0.025177	-0.063934	0.01709	-0.11704	-0.00473	0.030212	0.14313	0.61523	0.004272	0.021515	0.030365	0.084076	0.11688	-0.017395	-0.016937	0.18326	-0.006104	-0.002441	0.008698	0.5571	-0.009003	0.17838	-0.13351	-0.003052	-0.015259
23.638	-0.004578	-0.041199	-0.033417	-0.013733	0.014801	-0.005341	0.079041	-0.022888	0.000763	0.018921	0.019531	-0.004272	0.062866	0.096741	-0.59815	0.008545	0.037231	0.038757	0.011749	0.24918	-0.018616	0.002899	0.14236	-0.034943	0.001068	0.008392	-0.36301	-0.005035	0.15915	-0.12253	-0.002747	-0.016785
23.639	0.00824	-0.044098	-0.0354	-0.012512	0.023956	-0.003815	0.11856	-0.017548	0.020905	0.023499	0.14252	-0.009918	-0.049438	0.046387	-0.68939	-0.002289	0.037842	-0.039825	-0.04364	0.26504	-0.024719	-0.014191	0.12131	0.004578	0.006561	-0.002136	-0.29984	-0.007477	-0.053101	-0.07843	-0.000763	-0.015564
23.64	0.009613	-0.012054	-0.075073	0.011139	0.011292	0.00473	0.072479	-0.010986	-0.00351	-0.030212	0.06958	-0.01236	-0.094604	0.05188	-0.12329	-0.012665	0.007477	-0.055542	0.13931	0.10605	-0.035095	-0.013275	0.081329	-0.026703	0.001068	0.003967	-0.092468	-0.003204	-0.078735	0.007172	-0.002289	-0.010986
23.641	-0.003662	0.021057	0.14771	0.016022	-0.002747	0.049744	0.081329	-0.011749	-0.006409	-0.048523	0.13779	-0.00946	-0.00885	0.083618	-0.084839	-0.004425	-0.037231	0.022888	0.44678	-0.10757	-0.030212	-0.005798	0.060425	0.05722	0.023651	0.005951	0.1741	-0.003204	0.054321	-0.048218	-0.003204	-0.005646
23.642	-0.014191	0.022888	0.032654	0.004425	-0.015564	0.069122	0.12543	0.001678	0.04776	-0.030212	0.076904	-0.007324	-0.035095	0.035706	-0.23758	-0.002136	-0.038757	0.050964	-0.12466	-0.081635	-0.055542	-0.024261	-0.010376	0.001068	0.019836	0.005188	0.46478	-0.007629	0.024261	-0.12451	-0.00351	-0.007935
23.643	-0.018921	0.049591	-0.1506	0.002441	-0.048523	0.03891	0.096283	0.020294	0.081024	-0.014801	0.015411	-0.01297	-0.026093	0.091095	-0.27176	0.011292	-0.039825	0.018311	-1.1108	0.11841	-0.13031	-0.010223	0.000763	0.034485	0.028534	-0.004883	0.61249	-0.011902	-0.026703	-0.032043	-0.000916	-0.009918
23.644	-0.019684	0.073547	-0.044556	0.000305	-0.085754	-0.017242	0.14908	0.045319	0.11353	0.013275	0.059357	-0.000916	0.23041	0.051727	-0.05249	0.000916	-0.023956	0.076904	-1.1562	0.10269	-0.17425	-0.007629	0.031128	0.037842	0.023651	-0.010071	0.4744	-0.003967	-0.043945	0.06073	-0.002441	-0.000305
23.645	-0.023651	0.10086	-0.003357	0.005646	-0.043335	-0.028534	0.12558	0.032654	0.035095	0.003052	0.033417	-0.011902	0.33508	-0.074463	-0.064392	-0.007019	-0.025024	0.048981	-0.94269	-0.027008	-0.12909	0.025635	0.062408	0.04364	0.026703	-0.012817	0.36285	-0.006256	-0.030212	0.093842	-0.003662	0.001221
23.646	-0.015106	0.12863	0.24735	0.012512	0.002289	-0.077362	0.19241	0.019836	-0.051575	-0.013123	0.052185	-0.011444	-0.18646	-0.062103	0.058746	-0.005646	-0.005646	0.073853	-0.16892	-0.005951	0.093231	0.031281	0.045624	0.055237	0.035553	-0.003357	-0.091858	-0.00885	0.055847	0.077972	0.000916	-0.002899
23.647	-0.018463	0.10178	0.17822	0.023041	0.05722	-0.16693	0.1001	0.010071	-0.06073	0.009918	0.062714	-0.012512	-0.60104	-0.070801	0.11902	-0.007019	0.012054	-0.022888	-0.047913	0.082855	0.14908	0.017853	0.066833	0.054474	0.020905	-0.002747	-0.23575	-0.003967	0.027313	0.047302	0.000916	0.000305
23.648	-0.000916	0.10056	0.088806	0.034027	0.050964	-0.16541	-0.079041	-0.009766	0.007019	-0.0354	-0.006409	-0.018768	-0.1973	-0.083923	0.15656	0.002289	0.020752	-0.053558	0.30716	-0.003052	0.065918	0.014038	0.09613	-0.010529	0.015869	-0.010986	-0.01236	-0.003815	-0.043945	-0.03891	-0.005341	-0.003357
23.649	0.004272	0.11231	0.10956	0.039063	0.05661	-0.047913	-0.15243	-0.006866	0.069427	-0.040131	-0.017548	-0.01709	0.06012	-0.030212	0.1593	-0.001831	0.007782	-0.014191	0.43778	-0.029755	0.025482	0.017548	0.09201	-0.040436	0.027008	-0.007629	0.025177	-0.006561	-0.081787	-0.033722	0.00061	-0.005798
23.65	0.007019	0.11688	0.22522	0.004883	0.049896	0.08728	-0.16342	-0.000305	0.1207	0.019073	-0.030365	-0.019379	0.31052	0.034637	0.18066	-0.006866	-0.013428	0.012665	-0.012512	0.030212	0.002441	0.014954	0.10864	-0.003204	0.023499	-0.003967	-0.16983	-0.004578	0.035706	-0.046234	-0.006104	-0.006714
23.651	0.010986	0.14313	0.10971	0.007477	0.034485	0.11337	-0.066986	0.017548	0.12604	0.005646	-0.014648	-0.010681	0.55588	0.12466	0.19608	-0.001068	-0.011139	-0.019531	-0.14343	0.016632	0.007172	0.038605	0.092926	0.02655	0.024719	-0.005646	-0.34286	-0.006866	0.13001	-0.054626	-0.006561	-0.006409
23.652	0.02243	0.18463	0.10513	0.010986	0.015259	0.11673	-0.18768	0.043488	0.035095	-0.003204	-0.006104	-0.009003	-0.26764	0.083313	0.087128	-0.000916	0.000916	-0.00061	0.21164	-0.096436	-0.006256	0.027924	0.084839	0.002136	0.025177	-0.010071	-0.52338	-0.005951	0.13947	-0.071259	0.000458	-0.006561
23.653	0.019989	0.1947	0.002594	-0.012207	0.031891	0.089874	-0.2919	0.039673	0.086975	0.018463	-0.042114	-0.009155	-0.40695	-0.05127	-0.096893	-0.007324	0.023956	0.043488	0.034485	-0.27954	0.004578	0.014191	0.099335	0.013275	0.032654	-0.011139	-0.44098	-0.001373	0.067444	-0.049286	-0.004425	-0.011292
23.654	0.006561	0.12085	-0.14252	0.006256	-0.010529	0.045624	-0.22171	0.029144	-0.028381	0.059509	-0.012512	-0.008545	-0.12268	-0.095367	-0.03067	-0.002441	0.029449	0.038452	-0.072327	-0.27084	-0.003052	0.009308	0.065613	0.056305	0.031433	-0.001068	-0.32944	-0.000763	0.12817	-0.06897	-0.005493	-0.00824
23.655	-0.005798	0.074158	-0.12924	0.027771	-0.001526	0.073395	-0.1416	-0.003815	-0.21225	0.015869	-0.003052	-0.004425	-0.095978	-0.006561	0.14252	0.003967	0.042114	-0.026245	-1.0387	0.010834	-0.025635	-0.025482	0.057983	0.084991	0.01358	0.007324	-0.15717	0.000305	0.17044	-0.095062	0.000305	-0.004578
23.656	-0.014343	0.12558	0.20538	0.032959	-0.012512	0.097656	-0.025482	-0.019073	-0.22339	-0.019531	0.016937	-0.009918	0.06134	0.070343	0.14954	0.013275	0.082092	-0.054779	-1.2878	0.2327	-0.031738	-0.018005	0.071106	0.010071	0.006256	0.002594	0.20477	-0.001068	0.14526	-0.075073	-0.006561	-0.004883
23.657	-0.022125	0.1236	0.040283	0.03891	-0.002594	0.10773	-0.055084	-0.003357	-0.074615	-0.012817	-0.016632	-0.002899	0.1564	0.10651	0.036163	0.00473	0.1088	0.040283	-0.71442	0.30914	-0.030518	-0.038757	0.053711	-0.016022	0.003052	-0.003052	0.28931	-0.006561	0.13275	-0.052338	-0.000458	-0.006409
23.658	-0.007629	0.15488	0.10849	0.013275	0.005188	0.076141	-0.16968	-0.008087	0.13611	-0.005035	0.013733	-0.016174	0.058899	0.042114	-0.03479	0.001678	0.14801	0.062866	-0.16129	0.24033	-0.031433	-0.048218	0.096588	-0.051117	-0.004272	-0.014954	0.25009	-0.002747	-0.037689	-0.055695	-0.00412	-0.000153
23.659	-0.003662	0.21011	-0.032043	-0.008545	0.006409	-0.09903	-0.18814	-0.006256	0.07019	0.0177	0.018311	-0.014496	-0.15549	-0.013885	-0.21454	-0.006104	0.18066	0.003204	0.40131	0.002594	-0.06546	-0.071716	0.055847	-0.079651	-0.011749	-0.007782	0.21362	-0.004425	-0.15961	-0.10956	-0.000763	-0.005188
23.66	-0.002899	0.30395	-0.28015	-0.03418	0.009003	-0.10849	-0.058136	-0.000305	0.16037	-0.014038	0.033569	0.002289	0.159	0.027771	-0.21957	0.001068	0.13672	0.00946	1.0657	-0.13138	-0.065155	-0.084991	0.040436	-0.047302	-0.015106	-0.007172	0.21729	-0.000763	-0.092926	-0.14191	-0.001984	0.004272
23.661	0.009003	0.28397	-0.39337	-0.010223	0.011902	-0.024719	0.072479	-0.016937	0.30716	-0.0383	0.12863	-0.007172	0.16861	0.006714	0.15503	0.004578	0.06546	-0.028992	0.66986	-0.14175	-0.070648	-0.083008	0.018158	-0.10269	-0.006561	0	0.28534	-0.009003	0.02243	-0.16678	-0.003815	0.007935
23.662	0.015259	0.2832	0.019073	-0.005188	0.01236	0.020599	0.17075	-0.013885	0.22293	-0.054016	0.10605	-0.010529	-0.0914	0.058899	-0.071259	0.021057	-0.048676	-0.019226	0.23651	-0.12848	-0.062561	-0.07019	0.007324	-0.01297	0.009766	0.001526	0.24124	-0.001831	0.01236	-0.054321	-0.002594	0.007324
23.663	0.014954	0.22507	0.29678	0.005035	0.011444	0.020599	0.17258	-0.034637	-0.027771	-0.018311	-0.075836	-0.008087	-0.15625	0.087891	-0.12924	0.005493	-0.13031	0.028839	0.70496	-0.063477	-0.038147	-0.040741	-0.045319	0.005646	0.016479	-0.00473	0.20309	-0.005341	-0.040588	0.088043	-0.006256	0.005646
23.664	0.014343	0.026398	0.070496	0.016632	0.018921	0.013733	0.14023	-0.024414	-0.20889	0.024261	-0.1619	-0.010681	0.02243	-0.04303	-0.030212	-0.012665	-0.17563	0.001221	0.66238	0.053253	-0.070343	-0.005035	-0.018463	0.008545	0.00824	-0.005646	0.17303	-0.006409	-0.059052	0.086365	-0.002899	-0.001068
23.665	0.001221	-0.005951	-0.055847	0.027924	0.009308	0.032654	0.11505	-0.006256	-0.16708	0.018463	-0.070953	-0.005951	0.23636	0.022736	0.14267	-0.007935	-0.1889	-0.04425	0.22095	0.043488	-0.089569	0.021667	-0.005035	0.04776	0.023956	-0.009613	-0.21668	-0.005646	-0.032043	0.031281	-0.003815	-0.000305
23.666	0.003052	-0.06958	-0.28534	0.043335	0.018921	0.018005	0.035706	-0.00473	-0.084229	-0.005646	0.088348	-0.006409	-0.059509	0.030365	0.3244	0.010834	-0.16388	-0.046997	0.28305	0.046082	-0.072937	0.011902	0.009003	0.05249	0.015411	-0.00885	-0.1149	-0.007019	-0.15228	-0.036774	-0.005493	-0.004272
23.667	0.010223	-0.12482	-0.36057	0.036469	0.0177	0.039063	0.012054	0.000763	-0.031433	-0.043945	0.072937	-0.000153	0.027924	-0.04364	-0.023804	0.007629	-0.10284	-0.042877	0.11856	0.098267	-0.054321	0.026398	-0.037231	0.078125	0.019226	-0.000763	0.19836	0.002899	-0.18539	-0.13123	-0.000458	-0.005798
23.668	0.006866	-0.17014	-0.25696	0.028992	0.022278	0.014191	0.054016	0.007172	-0.062866	-0.036011	0.02182	-0.006256	0.026398	-0.092316	-0.11841	0.00473	-0.056152	-0.005951	0.16174	0.067291	-0.015411	0.051422	-0.030212	0.085907	0.026398	0.004272	-0.080261	-0.000916	-0.16098	-0.12024	0.000916	-0.003052
23.669	0.002289	-0.23254	-0.26413	-0.014648	-0.001526	0.027008	0.082703	0.035706	-0.11963	0.008545	-0.01709	-0.014648	-0.24368	-0.054932	0.034332	-0.001831	-0.025482	0.068207	-0.045776	-0.1152	0.035248	0.045929	-0.003815	0.078125	0.032806	-0.001526	-0.031586	0.001221	0.01236	-0.081177	-0.005341	-0.009155
23.67	0.00061	-0.26077	-0.40222	-0.050507	-0.027008	0.1059	0.005188	0.068054	0.009918	-0.006866	-0.013275	-0.003204	-0.064087	0.019684	0.061493	-0.000763	-0.012207	0.06424	0.094604	-0.069885	-0.003662	0.042725	-0.016022	0.029297	0.025024	0.001526	0.046234	-0.003815	0.007477	-0.000763	-0.002594	-0.010376
